<?xml version="1.0" encoding="UTF-8"?>
<svg width="32px" height="32px" viewBox="0 0 32 32" version="1.1" xmlns="http://www.w3.org/2000/svg" xmlns:xlink="http://www.w3.org/1999/xlink">
    <!-- Generator: sketchtool 62 (101010) - https://sketch.com -->
    <title>85047F7C-B0D3-48B7-A286-18ED7BC07B41</title>
    <desc>Created with sketchtool.</desc>
    <g id="Login-and-Registration-V2" stroke="none" stroke-width="1" fill="none" fill-rule="evenodd">
        <g id="03-2-Registration---with-data" transform="translate(-759.000000, -851.000000)" fill="#555555">
            <g id="Group-2" transform="translate(450.000000, 818.000000)">
                <g id="social-icons" transform="translate(152.000000, 31.000000)">
                    <g id="Group" transform="translate(152.000000, 0.000000)">
                        <g id="logo/facebook" transform="translate(3.000000, 0.000000)">
                            <g id="iconmonstr-facebook-5" transform="translate(2.000000, 2.000000)">
                                <path d="M16,2.66666667 C23.352,2.66666667 29.3333333,8.648 29.3333333,16 C29.3333333,23.352 23.352,29.3333333 16,29.3333333 C8.648,29.3333333 2.66666667,23.352 2.66666667,16 C2.66666667,8.648 8.648,2.66666667 16,2.66666667 Z M16,0 C7.164,0 0,7.164 0,16 C0,24.836 7.164,32 16,32 C24.836,32 32,24.836 32,16 C32,7.164 24.836,0 16,0 Z M13.3333333,13.3333333 L10.6666667,13.3333333 L10.6666667,16 L13.3333333,16 L13.3333333,24 L17.3333333,24 L17.3333333,16 L19.76,16 L20,13.3333333 L17.3333333,13.3333333 L17.3333333,12.2226667 C17.3333333,11.5853333 17.4613333,11.3333333 18.0773333,11.3333333 L20,11.3333333 L20,8 L16.7946667,8 C14.3973333,8 13.3333333,9.056 13.3333333,11.0773333 L13.3333333,13.3333333 Z" id="Shape"></path>
                            </g>
                        </g>
                    </g>
                </g>
            </g>
        </g>
    </g>
</svg>