<?xml version="1.0" encoding="UTF-8"?>
<svg width="32px" height="32px" viewBox="0 0 32 32" version="1.1" xmlns="http://www.w3.org/2000/svg" xmlns:xlink="http://www.w3.org/1999/xlink">
    <!-- Generator: sketchtool 62 (101010) - https://sketch.com -->
    <title>11850479-6FF1-406D-A7E6-D154013327EA</title>
    <desc>Created with sketchtool.</desc>
    <g id="Login-and-Registration-V2" stroke="none" stroke-width="1" fill="none" fill-rule="evenodd">
        <g id="03-2-Registration---with-data" transform="translate(-604.000000, -851.000000)" fill="#555555">
            <g id="Group-2" transform="translate(450.000000, 818.000000)">
                <g id="social-icons" transform="translate(152.000000, 31.000000)">
                    <g id="Group-4">
                        <g id="logo/github">
                            <g id="iconmonstr-github-5" transform="translate(2.000000, 2.000000)">
                                <path d="M16,2.66666667 C23.352,2.66666667 29.3333333,8.648 29.3333333,16 C29.3333333,23.352 23.352,29.3333333 16,29.3333333 C8.648,29.3333333 2.66666667,23.352 2.66666667,16 C2.66666667,8.648 8.648,2.66666667 16,2.66666667 Z M16,0 C7.164,0 0,7.164 0,16 C0,24.836 7.164,32 16,32 C24.836,32 32,24.836 32,16 C32,7.164 24.836,0 16,0 Z M16,8 C11.5826667,8 8,11.5813333 8,16 C8,19.5346667 10.292,22.5333333 13.472,23.5906667 C13.872,23.6653333 14,23.4173333 14,23.2053333 L14,21.716 C11.7746667,22.2 11.3106667,20.7733333 11.3106667,20.7733333 C10.948,19.8493333 10.4226667,19.6026667 10.4226667,19.6026667 C9.69733333,19.1053333 10.4773333,19.116 10.4773333,19.116 C11.2813333,19.172 11.704,19.9413333 11.704,19.9413333 C12.4173333,21.164 13.5746667,20.8106667 14.032,20.6066667 C14.104,20.0893333 14.3106667,19.7373333 14.54,19.5373333 C12.7626667,19.3346667 10.896,18.648 10.896,15.584 C10.896,14.7106667 11.208,13.9973333 11.72,13.4373333 C11.6373333,13.2333333 11.3626667,12.4186667 11.7973333,11.3173333 C11.7973333,11.3173333 12.4693333,11.1026667 13.9973333,12.1373333 C14.636,11.96 15.32,11.872 16,11.868 C16.68,11.8706667 17.364,11.96 18.004,12.1373333 C19.532,11.1026667 20.2013333,11.3173333 20.2013333,11.3173333 C20.6373333,12.4186667 20.3626667,13.2333333 20.2813333,13.4346667 C20.7946667,13.9946667 21.104,14.708 21.104,15.5813333 C21.104,18.6546667 19.232,19.3306667 17.4506667,19.528 C17.7386667,19.776 18,20.2626667 18,21.0093333 L18,23.204 C18,23.4173333 18.128,23.6666667 18.5333333,23.588 C21.7106667,22.5306667 24,19.5333333 24,16 C24,11.5813333 20.4173333,8 16,8 L16,8 Z" id="Shape"></path>
                            </g>
                        </g>
                    </g>
                </g>
            </g>
        </g>
    </g>
</svg>