<?xml version="1.0" encoding="UTF-8"?>
<svg width="32px" height="32px" viewBox="0 0 32 32" version="1.1" xmlns="http://www.w3.org/2000/svg" xmlns:xlink="http://www.w3.org/1999/xlink">
    <!-- Generator: sketchtool 62 (101010) - https://sketch.com -->
    <title>85F4E44A-F5CA-40BB-9D3F-1BDBCEF83866</title>
    <desc>Created with sketchtool.</desc>
    <g id="Login-and-Registration-V2" stroke="none" stroke-width="1" fill="none" fill-rule="evenodd">
        <g id="03-2-Registration---with-data" transform="translate(-680.000000, -851.000000)" fill="#555555">
            <g id="Group-2" transform="translate(450.000000, 818.000000)">
                <g id="social-icons" transform="translate(152.000000, 31.000000)">
                    <g id="logo/google" transform="translate(76.000000, 0.000000)">
                        <g id="iconmonstr-google-plus-5" transform="translate(2.000000, 2.000000)">
                            <path d="M16,2.66666667 C23.352,2.66666667 29.3333333,8.648 29.3333333,16 C29.3333333,23.352 23.352,29.3333333 16,29.3333333 C8.648,29.3333333 2.66666667,23.352 2.66666667,16 C2.66666667,8.648 8.648,2.66666667 16,2.66666667 Z M16,0 C7.164,0 0,7.164 0,16 C0,24.836 7.164,32 16,32 C24.836,32 32,24.836 32,16 C32,7.164 24.836,0 16,0 Z M16.1644555,14.9981047 L16.1644555,17.7973466 L20.7948681,17.7973466 C20.6082519,18.9963552 19.3929144,21.3197259 16.1644555,21.3197259 C13.3792098,21.3197259 11.1024931,19.0103514 11.1024931,16.1644555 C11.1024931,13.3185596 13.3792098,11.009185 16.1644555,11.009185 C17.7530252,11.009185 18.8120717,11.6856685 19.4209068,12.2711766 L21.6346406,10.1344219 C20.2116927,8.80478204 18.3665257,8 16.1644555,8 C11.6483452,8 8,11.6506779 8,16.1644555 C8,20.678233 11.6483452,24.3289109 16.1644555,24.3289109 C20.8765126,24.3289109 24,21.0188074 24,16.3534043 C24,15.8168829 23.9440152,15.4086602 23.8717014,15.0004374 L16.1644555,15.0004374 L16.1644555,14.9981047 Z" id="Shape"></path>
                        </g>
                    </g>
                </g>
            </g>
        </g>
    </g>
</svg>