<?xml version="1.0" encoding="UTF-8"?>
<svg width="32px" height="32px" viewBox="0 0 32 32" version="1.1" xmlns="http://www.w3.org/2000/svg" xmlns:xlink="http://www.w3.org/1999/xlink">
    <!-- Generator: sketchtool 62 (101010) - https://sketch.com -->
    <title>7C378172-5A80-449C-A432-C031EA13A5B5</title>
    <desc>Created with sketchtool.</desc>
    <g id="Login-and-Registration-V2" stroke="none" stroke-width="1" fill="none" fill-rule="evenodd">
        <g id="04-2-Login---with-data" transform="translate(-839.000000, -637.000000)" fill="#555555">
            <g id="Group-2" transform="translate(450.000000, 604.000000)">
                <g id="social-icons" transform="translate(77.000000, 31.000000)">
                    <g id="icon/singlesignon" transform="translate(310.000000, 0.000000)">
                        <g id="iconmonstr-key-11" transform="translate(2.000000, 2.000000)">
                            <path d="M16,2.66666667 C23.352,2.66666667 29.3333333,8.648 29.3333333,16 C29.3333333,23.352 23.352,29.3333333 16,29.3333333 C8.648,29.3333333 2.66666667,23.352 2.66666667,16 C2.66666667,8.648 8.648,2.66666667 16,2.66666667 Z M16,0 C7.164,0 0,7.164 0,16 C0,24.836 7.164,32 16,32 C24.836,32 32,24.836 32,16 C32,7.164 24.836,0 16,0 Z M16.9426667,18.5946667 L15.5626667,20 L14.6666667,20 L14.6666667,21.3333333 L13.3333333,21.3333333 L13.3333333,22.6666667 L9.33333333,22.6666667 L9.33333333,19.6106667 L13.528,15.364 C14.1893333,16.8453333 15.42,18.0146667 16.9426667,18.5946667 Z M24,12.8893333 C24,15.5893333 21.8106667,17.7786667 19.1106667,17.7786667 C16.412,17.7786667 14.2226667,15.5893333 14.2226667,12.8893333 C14.2226667,10.1893333 16.412,8 19.1106667,8 C21.8106667,8 24,10.1893333 24,12.8893333 Z M22.1666667,11.056 C22.1666667,10.3813333 21.62,9.83333333 20.944,9.83333333 C20.268,9.83333333 19.7226667,10.3813333 19.7226667,11.056 C19.7226667,11.7306667 20.268,12.2786667 20.944,12.2786667 C21.62,12.2786667 22.1666667,11.7306667 22.1666667,11.056 Z" id="Shape" fill-rule="nonzero"></path>
                        </g>
                    </g>
                </g>
            </g>
        </g>
    </g>
</svg>