<?xml version="1.0" encoding="UTF-8"?>
<svg width="32px" height="32px" viewBox="0 0 32 32" version="1.1" xmlns="http://www.w3.org/2000/svg" xmlns:xlink="http://www.w3.org/1999/xlink">
    <!-- Generator: sketchtool 62 (101010) - https://sketch.com -->
    <title>85EC314F-602B-4D73-9E8C-4725788D0FBF</title>
    <desc>Created with sketchtool.</desc>
    <g id="Login-and-Registration-V2" stroke="none" stroke-width="1" fill="none" fill-rule="evenodd">
        <g id="04-2-Login---with-data" transform="translate(-684.000000, -637.000000)" fill="#555555">
            <g id="Group-2" transform="translate(450.000000, 604.000000)">
                <g id="social-icons" transform="translate(77.000000, 31.000000)">
                    <g id="logo/twitter" transform="translate(155.000000, 0.000000)">
                        <g id="iconmonstr-twitter-5" transform="translate(2.000000, 2.000000)">
                            <path d="M16,2.66666667 C23.352,2.66666667 29.3333333,8.648 29.3333333,16 C29.3333333,23.352 23.352,29.3333333 16,29.3333333 C8.648,29.3333333 2.66666667,23.352 2.66666667,16 C2.66666667,8.648 8.648,2.66666667 16,2.66666667 Z M16,0 C7.164,0 0,7.164 0,16 C0,24.836 7.164,32 16,32 C24.836,32 32,24.836 32,16 C32,7.164 24.836,0 16,0 Z M24.6666667,11.704 C24.0786667,11.9653333 23.4453333,12.1413333 22.7813333,12.2213333 C23.46,11.8146667 23.9786667,11.172 24.2253333,10.4053333 C23.5906667,10.7813333 22.888,11.0546667 22.14,11.2013333 C21.5426667,10.5626667 20.688,10.164 19.7453333,10.164 C17.6253333,10.164 16.068,12.1413333 16.5466667,14.1946667 C13.82,14.0573333 11.4,12.7506667 9.78133333,10.7653333 C8.92133333,12.24 9.336,14.1706667 10.7973333,15.148 C10.26,15.1306667 9.75466667,14.9826667 9.312,14.7373333 C9.276,16.2573333 10.3666667,17.68 11.9453333,17.9973333 C11.484,18.1226667 10.9773333,18.152 10.4626667,18.0533333 C10.88,19.3573333 12.0946667,20.3053333 13.5293333,20.332 C12.1466667,21.4146667 10.4093333,21.8986667 8.66666667,21.6933333 C10.12,22.6253333 11.844,23.168 13.6973333,23.168 C19.7933333,23.168 23.236,18.02 23.028,13.4026667 C23.6706667,12.9413333 24.2266667,12.3626667 24.6666667,11.704 L24.6666667,11.704 Z" id="Shape"></path>
                        </g>
                    </g>
                </g>
            </g>
        </g>
    </g>
</svg>