<?xml version="1.0" encoding="UTF-8"?>
<svg width="20px" height="13px" viewBox="0 0 20 13" version="1.1" xmlns="http://www.w3.org/2000/svg" xmlns:xlink="http://www.w3.org/1999/xlink">
    <!-- Generator: sketchtool 62 (101010) - https://sketch.com -->
    <title>685404DA-CB2E-45AC-9B51-7AE90627FCD5</title>
    <desc>Created with sketchtool.</desc>
    <g id="Login-and-Registration-V2" stroke="none" stroke-width="1" fill="none" fill-rule="evenodd" stroke-linecap="round" stroke-linejoin="round">
        <g id="03-2-Registration---with-data" transform="translate(-868.000000, -592.000000)" stroke="#555555">
            <g id="fields" transform="translate(495.000000, 276.000000)">
                <g id="Group-2" transform="translate(0.000000, 71.000000)">
                    <g id="password" transform="translate(0.000000, 213.000000)">
                        <g id="icon-view-password" transform="translate(374.000000, 33.000000)">
                            <g>
                                <path d="M0,5.5 C0,5.5 3.6,0 9,0 C14.4,0 18,5.5 18,5.5 C18,5.5 14.4,11 9,11 C3.6,11 0,5.5 0,5.5 Z" id="Stroke-1" stroke-width="1.5"></path>
                                <path d="M9.5,3 L9.5,3 C10.88,3 12,4.11866667 12,5.5 C12,6.88 10.88,8 9.5,8 C8.11866667,8 7,6.88 7,5.5 C7,4.11866667 8.11866667,3 9.5,3 Z" id="Stroke-3" stroke-width="1.5"></path>
                            </g>
                        </g>
                    </g>
                </g>
            </g>
        </g>
    </g>
</svg>